<svg xmlns="http://www.w3.org/2000/svg" width="13.08" height="13.08" viewBox="0 0 13.08 13.08">
  <path id="layer1" d="M14.419,11.858l-2.27-1.484a1.048,1.048,0,0,0-1.419.284c-.524.633-1.157,1.68-3.536-.7S5.841,6.927,6.474,6.4a1.047,1.047,0,0,0,.284-1.418L5.274,2.716c-.2-.284-.458-.742-1.069-.655A2.979,2.979,0,0,0,2,5.007C2,6.97,3.55,9.37,5.667,11.487s4.518,3.644,6.461,3.644a3.164,3.164,0,0,0,2.947-2.182C15.139,12.512,14.7,12.054,14.419,11.858Z" transform="translate(-2 -2.05)" fill="#009ce5"/>
</svg>
