<svg xmlns="http://www.w3.org/2000/svg" width="18.031" height="17.23" viewBox="0 0 18.031 17.23">
  <path id="linkedin-icon-1" d="M0,7A1.874,1.874,0,0,1,.609,5.566,2.235,2.235,0,0,1,2.193,5a2.168,2.168,0,0,1,1.549.557,1.963,1.963,0,0,1,.609,1.5,1.833,1.833,0,0,1-.592,1.392,2.239,2.239,0,0,1-1.6.574H2.141A2.13,2.13,0,0,1,.592,8.446,1.929,1.929,0,0,1,0,7ZM.226,22.23V10.6H4.09V22.23Zm6,0h3.864V15.739a2.266,2.266,0,0,1,.879-1.941,1.891,1.891,0,0,1,1.244-.409q1.949,0,1.949,2.628V22.23h3.864V15.565a5.6,5.6,0,0,0-1.218-3.907,4.156,4.156,0,0,0-3.22-1.331,3.95,3.95,0,0,0-3.5,1.932v.035h-.017l.017-.035V10.6H6.231q.035.557.035,3.463T6.231,22.23Z" transform="translate(0 -5)" fill="#fff"/>
</svg>
