<svg xmlns="http://www.w3.org/2000/svg" xmlns:xlink="http://www.w3.org/1999/xlink" width="361.637" height="224.364" viewBox="0 0 361.637 224.364">
  <defs>
    <clipPath id="clip-path">
      <path id="Path_8554" data-name="Path 8554" d="M445.039,219.091v16.1l144.35-21.023,2.769-10.82Z" transform="translate(-445.039 -203.347)" fill="none"/>
    </clipPath>
    <linearGradient id="linear-gradient" x1="-4.545" y1="10.744" x2="-4.534" y2="10.744" gradientUnits="objectBoundingBox">
      <stop offset="0" stop-color="#0868ac"/>
      <stop offset="1" stop-color="#28aecf"/>
    </linearGradient>
    <clipPath id="clip-path-2">
      <path id="Path_8556" data-name="Path 8556" d="M445.039,234.655v10.782l141.194-27.293,1.824-7.127Z" transform="translate(-445.039 -211.017)" fill="none"/>
    </clipPath>
    <linearGradient id="linear-gradient-2" x1="-4.588" y1="10.303" x2="-4.577" y2="10.303" gradientUnits="objectBoundingBox">
      <stop offset="0" stop-color="#11016f"/>
      <stop offset="1" stop-color="#0a50a1"/>
    </linearGradient>
    <clipPath id="clip-path-3">
      <path id="Path_8558" data-name="Path 8558" d="M445.039,246.847V252l139.027-31.77.859-3.363Z" transform="translate(-445.039 -216.868)" fill="none"/>
    </clipPath>
    <linearGradient id="linear-gradient-3" x1="-4.654" y1="10.157" x2="-4.643" y2="10.157" gradientUnits="objectBoundingBox">
      <stop offset="0" stop-color="#ff4100"/>
      <stop offset="1" stop-color="#ff8c00"/>
    </linearGradient>
    <clipPath id="clip-path-4">
      <path id="Path_8560" data-name="Path 8560" d="M445.039,255.754v9.382l136.109-38.058,1.54-6.025Z" transform="translate(-445.039 -221.052)" fill="none"/>
    </clipPath>
    <linearGradient id="linear-gradient-4" x1="-4.483" y1="8.983" x2="-4.472" y2="8.983" gradientUnits="objectBoundingBox">
      <stop offset="0" stop-color="#737373"/>
      <stop offset="1" stop-color="#bfbfbf"/>
    </linearGradient>
    <clipPath id="clip-path-5">
      <path id="Path_8562" data-name="Path 8562" d="M584.847,193.039c-10.582.594-94.132,3.283-139.808,4.734v11.052c46.832-2.753,138.245-8.126,144.908-8.508a27.264,27.264,0,0,1,5.676.242l1.206-4.79A19.355,19.355,0,0,0,586.36,193q-.737,0-1.513.044" transform="translate(-445.039 -192.995)" fill="none"/>
    </clipPath>
    <linearGradient id="linear-gradient-5" x1="-4.846" y1="14.026" x2="-4.835" y2="14.026" gradientUnits="objectBoundingBox">
      <stop offset="0" stop-color="#4dac26"/>
      <stop offset="1" stop-color="#99cf16"/>
    </linearGradient>
    <clipPath id="clip-path-6">
      <path id="Path_8564" data-name="Path 8564" d="M445.039,210.38v5.382l148.427-13.129.92-3.664Z" transform="translate(-445.039 -198.969)" fill="none"/>
    </clipPath>
    <linearGradient id="linear-gradient-6" x1="-4.891" y1="13.73" x2="-4.88" y2="13.73" gradientUnits="objectBoundingBox">
      <stop offset="0" stop-color="#b3013f"/>
      <stop offset="1" stop-color="#f21d8c"/>
    </linearGradient>
    <clipPath id="clip-path-7">
      <path id="Path_8566" data-name="Path 8566" d="M578.508,188.505h-.2c-8.767.046-87.507.027-133.267.01v6.241c46.623-.688,129.626-1.914,136.149-2.044,9.2-.182,13.413,3.129,13.413,3.129s-2.422-7.336-16.087-7.336h-.006" transform="translate(-445.039 -188.505)" fill="none"/>
    </clipPath>
    <linearGradient id="linear-gradient-7" x1="-5.173" y1="17.001" x2="-5.162" y2="17.001" gradientUnits="objectBoundingBox">
      <stop offset="0" stop-color="#ff7f01"/>
      <stop offset="1" stop-color="#ffcc01"/>
    </linearGradient>
    <clipPath id="clip-path-8">
      <path id="Path_8568" data-name="Path 8568" d="M532.495,204.264c-1.852,7.11-26.862,102.222-29.765,113.282s2.171,16.628,2.171,16.628a28.261,28.261,0,0,1,.7-12.513c1.927-7.315,27.044-102.912,29.772-113.285s-2.679-16.362-2.679-16.362a23.849,23.849,0,0,1-.2,12.249" transform="translate(-501.833 -192.015)" fill="none"/>
    </clipPath>
    <linearGradient id="linear-gradient-8" x1="-3.614" y1="5.156" x2="-3.606" y2="5.156" xlink:href="#linear-gradient-7"/>
    <clipPath id="clip-path-9">
      <path id="Path_8570" data-name="Path 8570" d="M546.251,235.6c-1.837,7.263-14.962,56.918-14.962,56.918l5.94-1.695s10.255-39,13.021-49.518-3-17.1-3-17.1l-.742-.9s1.584,5.033-.257,12.293" transform="translate(-531.289 -223.309)" fill="none"/>
    </clipPath>
    <linearGradient id="linear-gradient-9" x1="-8.176" y1="9.493" x2="-8.16" y2="9.493" xlink:href="#linear-gradient-4"/>
    <clipPath id="clip-path-10">
      <path id="Path_8572" data-name="Path 8572" d="M544.946,231.785c-1.923,7.139-17.781,67.656-17.781,67.656l3.313-.945s14.176-53.942,16.7-63.531-2.052-15.75-2.052-15.75a24.078,24.078,0,0,1-.176,12.569" transform="translate(-527.165 -219.216)" fill="none"/>
    </clipPath>
    <linearGradient id="linear-gradient-10" x1="-7.064" y1="8.425" x2="-7.05" y2="8.425" xlink:href="#linear-gradient-3"/>
    <clipPath id="clip-path-11">
      <path id="Path_8574" data-name="Path 8574" d="M543.119,226.072c-1.672,6.521-21.721,82.677-21.721,82.677l7.022-2s16.55-63.213,19.426-73.926c2.8-10.418-4.088-18.494-4.088-18.494l-.347-.491a28.034,28.034,0,0,1-.293,12.239" transform="translate(-521.398 -213.833)" fill="none"/>
    </clipPath>
    <linearGradient id="linear-gradient-11" x1="-5.751" y1="7.138" x2="-5.739" y2="7.138" xlink:href="#linear-gradient-2"/>
    <clipPath id="clip-path-12">
      <path id="Path_8576" data-name="Path 8576" d="M540.72,218.873c-1.833,7.271-26.879,102.364-26.879,102.364l10.661-3.043s20.582-78.677,23.4-89.074c2.78-10.276-3.958-18.308-3.958-18.308l-3.014-4.3a24.444,24.444,0,0,1-.207,12.362" transform="translate(-513.841 -206.511)" fill="none"/>
    </clipPath>
    <linearGradient id="linear-gradient-12" x1="-4.58" y1="5.995" x2="-4.57" y2="5.995" xlink:href="#linear-gradient"/>
    <clipPath id="clip-path-13">
      <path id="Path_8578" data-name="Path 8578" d="M539.338,214.738c-1.749,6.573-29.771,113.351-29.771,113.351l.318.456c1.2-.418,2.286-.792,3.189-1.1,0,0,26.2-99.714,28.7-109.232s-2.211-15.817-2.211-15.817a26.517,26.517,0,0,1-.219,12.345" transform="translate(-509.566 -202.393)" fill="none"/>
    </clipPath>
    <linearGradient id="linear-gradient-13" x1="-4.192" y1="5.638" x2="-4.183" y2="5.638" xlink:href="#linear-gradient-6"/>
    <clipPath id="clip-path-14">
      <path id="Path_8580" data-name="Path 8580" d="M524.549,285c-11.231,3.133-18.128-2.623-18.128-2.623l1.843,2.7s6.205,11.313,21.372,7.2c15.919-4.318,132.2-36.882,132.2-36.882l6.4-6.136-11.486-1.145S535.781,281.865,524.549,285" transform="translate(-506.421 -248.116)" fill="none"/>
    </clipPath>
    <linearGradient id="linear-gradient-14" x1="-4.359" y1="6.707" x2="-4.35" y2="6.707" xlink:href="#linear-gradient-5"/>
    <clipPath id="clip-path-15">
      <path id="Path_8582" data-name="Path 8582" d="M528.737,295.449c-11.355,3.166-18.126-2.625-18.126-2.625s5.637,10.258,20.553,6.1L694.11,253.47l3.053-2.926L691.686,250S540.092,292.28,528.737,295.449" transform="translate(-510.611 -249.996)" fill="none"/>
    </clipPath>
    <linearGradient id="linear-gradient-15" x1="-3.855" y1="5.942" x2="-3.847" y2="5.942" xlink:href="#linear-gradient-6"/>
    <clipPath id="clip-path-16">
      <path id="Path_8584" data-name="Path 8584" d="M540.63,308.482c-11.206,3.108-18.133-2.64-18.133-2.64s5.455,9.982,20.356,5.821,135.771-37.906,135.771-37.906l2.8-2.684-5.022-.5s-124.568,34.8-135.773,37.908" transform="translate(-522.497 -270.574)" fill="none"/>
    </clipPath>
    <linearGradient id="linear-gradient-16" x1="-4.66" y1="6.528" x2="-4.651" y2="6.528" xlink:href="#linear-gradient-3"/>
    <clipPath id="clip-path-17">
      <path id="Path_8586" data-name="Path 8586" d="M543.423,308.566c-11.3,3.135-18.168-2.683-18.168-2.683l1.34,1.99s6.078,10.515,20.814,6.4c15.441-4.31,109.163-30.476,109.163-30.476l5.016-4.811-9-.9s-97.863,27.343-109.163,30.478" transform="translate(-525.255 -278.088)" fill="none"/>
    </clipPath>
    <linearGradient id="linear-gradient-17" x1="-5.419" y1="7.278" x2="-5.408" y2="7.278" xlink:href="#linear-gradient-4"/>
    <clipPath id="clip-path-18">
      <path id="Path_8588" data-name="Path 8588" d="M536.706,305.75c-11.152,3.11-18.08-2.617-18.08-2.617l1.783,2.684s6,10.813,21.013,6.682c15.606-4.291,155.435-43.336,155.435-43.336l5.933-5.689-10.648-1.062s-144.283,40.23-155.435,43.338" transform="translate(-518.626 -262.412)" fill="none"/>
    </clipPath>
    <linearGradient id="linear-gradient-18" x1="-3.925" y1="5.727" x2="-3.917" y2="5.727" xlink:href="#linear-gradient-2"/>
    <clipPath id="clip-path-19">
      <path id="Path_8590" data-name="Path 8590" d="M531.629,302.684c-11.236,3.133-18.1-2.577-18.1-2.577l4.266,6.167s6.216,10.809,21,6.661c15.543-4.366,184.216-51.378,184.216-51.378l9.012-8.64-16.172-1.611s-172.984,48.243-184.22,51.378" transform="translate(-513.532 -251.306)" fill="none"/>
    </clipPath>
    <linearGradient id="linear-gradient-19" x1="-3.224" y1="4.978" x2="-3.218" y2="4.978" xlink:href="#linear-gradient"/>
    <clipPath id="clip-path-20">
      <path id="Path_8592" data-name="Path 8592" d="M535.559,208.669c-1.68,6.506-26.189,99.6-29.692,113.274a24.475,24.475,0,0,0-.581,10.477c1.043.207,3.275.654,4.842,1a34.287,34.287,0,0,1,.826-4.2c1.887-7.2,27.113-103.393,29.7-113.278s-2.548-16.3-2.548-16.3l-2.247-3.2a27.9,27.9,0,0,1-.305,12.224" transform="translate(-504.963 -196.445)" fill="none"/>
    </clipPath>
    <linearGradient id="linear-gradient-20" x1="-3.777" y1="5.261" x2="-3.768" y2="5.261" xlink:href="#linear-gradient-5"/>
    <clipPath id="clip-path-21">
      <path id="Path_8594" data-name="Path 8594" d="M521.394,277.222c-11.313,3.127-18.093-2.673-18.093-2.673s5.44,11.121,20.967,6.786,109.3-30.5,109.3-30.5l3.618-3.469-6.494-.646S532.7,274.1,521.394,277.222" transform="translate(-503.301 -246.719)" fill="none"/>
    </clipPath>
    <linearGradient id="linear-gradient-21" x1="-5.312" y1="8.164" x2="-5.301" y2="8.164" xlink:href="#linear-gradient-7"/>
  </defs>
  <g id="Group_12639" data-name="Group 12639" transform="translate(-445.039 -188.505)">
    <g id="Group_12598" data-name="Group 12598" transform="translate(445.039 219.524)">
      <g id="Group_12597" data-name="Group 12597" clip-path="url(#clip-path)">
        <path id="Path_8553" data-name="Path 8553" d="M605.672,247.335,432.64,270.624l25.913-55.131L631.586,192.2Z" transform="translate(-458.553 -215.493)" fill="url(#linear-gradient)"/>
      </g>
    </g>
    <g id="Group_12600" data-name="Group 12600" transform="translate(445.039 235.554)">
      <g id="Group_12599" data-name="Group 12599" clip-path="url(#clip-path-2)">
        <path id="Path_8555" data-name="Path 8555" d="M602.1,257.366,432.154,280.239l26.929-57.293,169.948-22.873Z" transform="translate(-459.083 -222.946)" fill="url(#linear-gradient-2)"/>
      </g>
    </g>
    <g id="Group_12602" data-name="Group 12602" transform="translate(445.039 247.783)">
      <g id="Group_12601" data-name="Group 12601" clip-path="url(#clip-path-3)">
        <path id="Path_8557" data-name="Path 8557" d="M599.045,263.72,432.084,286.191l27.076-57.6,166.961-22.471Z" transform="translate(-459.16 -228.587)" fill="url(#linear-gradient-3)"/>
      </g>
    </g>
    <g id="Group_12604" data-name="Group 12604" transform="translate(445.039 256.527)">
      <g id="Group_12603" data-name="Group 12603" clip-path="url(#clip-path-4)">
        <path id="Path_8559" data-name="Path 8559" d="M599.072,277,430.007,299.757l31.416-66.838,169.065-22.755Z" transform="translate(-461.423 -232.919)" fill="url(#linear-gradient-4)"/>
      </g>
    </g>
    <g id="Group_12606" data-name="Group 12606" transform="translate(445.039 197.889)">
      <g id="Group_12605" data-name="Group 12605" clip-path="url(#clip-path-5)">
        <path id="Path_8561" data-name="Path 8561" d="M606.318,220.756,436.334,243.634l18.194-38.708,169.984-22.878Z" transform="translate(-454.527 -204.927)" fill="url(#linear-gradient-5)"/>
      </g>
    </g>
    <g id="Group_12608" data-name="Group 12608" transform="translate(445.039 210.374)">
      <g id="Group_12607" data-name="Group 12607" clip-path="url(#clip-path-6)">
        <path id="Path_8563" data-name="Path 8563" d="M604.04,227.544,436.181,250.137l18.512-39.385,167.859-22.592Z" transform="translate(-454.694 -210.751)" fill="url(#linear-gradient-6)"/>
      </g>
    </g>
    <g id="Group_12610" data-name="Group 12610" transform="translate(445.039 188.505)">
      <g id="Group_12609" data-name="Group 12609" clip-path="url(#clip-path-7)">
        <path id="Path_8565" data-name="Path 8565" d="M601.789,207.306,438.445,229.291l13.781-29.32L615.57,177.986Z" transform="translate(-452.226 -199.97)" fill="url(#linear-gradient-7)"/>
      </g>
    </g>
    <g id="Group_12612" data-name="Group 12612" transform="translate(563.737 195.841)">
      <g id="Group_12611" data-name="Group 12611" clip-path="url(#clip-path-8)">
        <path id="Path_8567" data-name="Path 8567" d="M448.047,283.987l125.574-97.613L707.134,254.5,581.56,352.114Z" transform="translate(-560.459 -198.164)" fill="url(#linear-gradient-8)"/>
      </g>
    </g>
    <g id="Group_12614" data-name="Group 12614" transform="translate(625.299 261.244)">
      <g id="Group_12613" data-name="Group 12613" clip-path="url(#clip-path-9)">
        <path id="Path_8569" data-name="Path 8569" d="M505.57,268.583l62.362-48.476,66.868,34.12L572.438,302.7Z" transform="translate(-559.322 -226.799)" fill="url(#linear-gradient-9)"/>
      </g>
    </g>
    <g id="Group_12616" data-name="Group 12616" transform="translate(616.68 252.69)">
      <g id="Group_12615" data-name="Group 12615" clip-path="url(#clip-path-10)">
        <path id="Path_8571" data-name="Path 8571" d="M497.353,271.269l71.236-55.374L644.5,254.628,573.262,310Z" transform="translate(-559.659 -222.836)" fill="url(#linear-gradient-10)"/>
      </g>
    </g>
    <g id="Group_12618" data-name="Group 12618" transform="translate(604.627 241.44)">
      <g id="Group_12617" data-name="Group 12617" clip-path="url(#clip-path-11)">
        <path id="Path_8573" data-name="Path 8573" d="M486.127,275.833l85.3-66.311L662.8,256.145l-85.3,66.311Z" transform="translate(-559.842 -218.531)" fill="url(#linear-gradient-11)"/>
      </g>
    </g>
    <g id="Group_12620" data-name="Group 12620" transform="translate(588.833 226.137)">
      <g id="Group_12619" data-name="Group 12619" clip-path="url(#clip-path-12)">
        <path id="Path_8575" data-name="Path 8575" d="M471.208,281.691l103.7-80.609,111.341,56.813L582.549,338.5Z" transform="translate(-560.31 -212.429)" fill="url(#linear-gradient-12)"/>
      </g>
    </g>
    <g id="Group_12622" data-name="Group 12622" transform="translate(579.898 217.53)">
      <g id="Group_12621" data-name="Group 12621" clip-path="url(#clip-path-13)">
        <path id="Path_8577" data-name="Path 8577" d="M462.687,284.128l111.728-86.851,118.927,60.684L581.615,344.812Z" transform="translate(-560.662 -207.969)" fill="url(#linear-gradient-13)"/>
      </g>
    </g>
    <g id="Group_12624" data-name="Group 12624" transform="translate(573.325 313.09)">
      <g id="Group_12623" data-name="Group 12623" clip-path="url(#clip-path-14)">
        <path id="Path_8579" data-name="Path 8579" d="M723.516,304.358,555.254,345.646l-66.217-71.732L657.3,232.626Z" transform="translate(-525.369 -264.999)" fill="url(#linear-gradient-14)"/>
      </g>
    </g>
    <g id="Group_12626" data-name="Group 12626" transform="translate(582.082 317.019)">
      <g id="Group_12625" data-name="Group 12625" clip-path="url(#clip-path-15)">
        <path id="Path_8581" data-name="Path 8581" d="M757.954,312.742,565.9,359.868l-74.407-80.6,192.053-47.126Z" transform="translate(-531.448 -269.461)" fill="url(#linear-gradient-15)"/>
      </g>
    </g>
    <g id="Group_12628" data-name="Group 12628" transform="translate(606.924 360.026)">
      <g id="Group_12627" data-name="Group 12627" clip-path="url(#clip-path-16)">
        <path id="Path_8583" data-name="Path 8583" d="M733.242,324.049,569.609,364.2,506.2,295.513,669.835,255.36Z" transform="translate(-540.258 -287.156)" fill="url(#linear-gradient-16)"/>
      </g>
    </g>
    <g id="Group_12630" data-name="Group 12630" transform="translate(612.688 375.73)">
      <g id="Group_12629" data-name="Group 12629" clip-path="url(#clip-path-17)">
        <path id="Path_8585" data-name="Path 8585" d="M707.736,325.169,566.251,359.887l-55.508-60.131,141.484-34.718Z" transform="translate(-541.073 -292.313)" fill="url(#linear-gradient-17)"/>
      </g>
    </g>
    <g id="Group_12632" data-name="Group 12632" transform="translate(598.833 342.968)">
      <g id="Group_12631" data-name="Group 12631" clip-path="url(#clip-path-18)">
        <path id="Path_8587" data-name="Path 8587" d="M764.877,325.832,573.919,372.69,499.1,291.641l190.958-46.858Z" transform="translate(-539.907 -281.627)" fill="url(#linear-gradient-18)"/>
      </g>
    </g>
    <g id="Group_12634" data-name="Group 12634" transform="translate(588.187 319.757)">
      <g id="Group_12633" data-name="Group 12633" clip-path="url(#clip-path-19)">
        <path id="Path_8589" data-name="Path 8589" d="M807.346,327.732,579.7,383.592l-89.858-97.341,227.644-55.86Z" transform="translate(-539.351 -274.103)" fill="url(#linear-gradient-19)"/>
      </g>
    </g>
    <g id="Group_12636" data-name="Group 12636" transform="translate(570.277 205.099)">
      <g id="Group_12635" data-name="Group 12635" clip-path="url(#clip-path-20)">
        <path id="Path_8591" data-name="Path 8591" d="M453.975,285.32,575.6,190.775l129.605,66.132L583.58,351.453Z" transform="translate(-560.537 -202.625)" fill="url(#linear-gradient-20)"/>
      </g>
    </g>
    <g id="Group_12638" data-name="Group 12638" transform="translate(566.805 310.17)">
      <g id="Group_12637" data-name="Group 12637" clip-path="url(#clip-path-21)">
        <path id="Path_8593" data-name="Path 8593" d="M681.786,292.445,543.315,326.424l-54.041-58.542L627.745,233.9Z" transform="translate(-518.59 -260.688)" fill="url(#linear-gradient-21)"/>
      </g>
    </g>
  </g>
</svg>
