<svg xmlns="http://www.w3.org/2000/svg" xmlns:xlink="http://www.w3.org/1999/xlink" width="500" height="700" viewBox="0 0 500 700">
  <defs>
    <clipPath id="clip-sprite">
      <rect width="500" height="700"/>
    </clipPath>
  </defs>
  <g id="sprite" clip-path="url(#clip-sprite)">
    <rect width="500" height="700" fill="rgba(255,255,255,0)"/>
    <g id="noun_people_to_people_3485979" data-name="noun_people to people_3485979" transform="translate(7.501 104)">
      <g id="Group_12410" data-name="Group 12410" transform="translate(0.5 8)">
        <path id="Path_8382" data-name="Path 8382" d="M2,16.8A8.8,8.8,0,1,0,10.8,8,8.8,8.8,0,0,0,2,16.8Zm14.088,0A5.283,5.283,0,1,1,10.8,11.522,5.283,5.283,0,0,1,16.088,16.8Z" transform="translate(3.283 -8)" fill="#fff"/>
        <path id="Path_8387" data-name="Path 8387" d="M19.892,14H9.284A10.608,10.608,0,0,0,.852,18.226,1.761,1.761,0,0,0,3.67,20.34,7.076,7.076,0,0,1,9.3,17.522H19.892A7.076,7.076,0,0,1,25.5,20.34a1.761,1.761,0,0,0,2.818-2.113A10.6,10.6,0,0,0,19.892,14Z" transform="translate(-0.5 7.132)" fill="#fff"/>
      </g>
    </g>
    <g id="noun_people_to_people_3485979-2" data-name="noun_people to people_3485979" transform="translate(51.33 104)">
      <g id="Group_12410-2" data-name="Group 12410" transform="translate(0.5 8)">
        <path id="Path_8382-2" data-name="Path 8382" d="M2,16.8A8.8,8.8,0,1,0,10.8,8,8.8,8.8,0,0,0,2,16.8Zm14.088,0A5.283,5.283,0,1,1,10.8,11.522,5.283,5.283,0,0,1,16.088,16.8Z" transform="translate(3.283 -8)" fill="#009ce5"/>
        <path id="Path_8387-2" data-name="Path 8387" d="M19.892,14H9.284A10.608,10.608,0,0,0,.852,18.226,1.761,1.761,0,0,0,3.67,20.34,7.076,7.076,0,0,1,9.3,17.522H19.892A7.076,7.076,0,0,1,25.5,20.34a1.761,1.761,0,0,0,2.818-2.113A10.6,10.6,0,0,0,19.892,14Z" transform="translate(-0.5 7.132)" fill="#009ce5"/>
      </g>
    </g>
    <text id="_..." data-name="..." transform="translate(7 50)" fill="#06c" font-size="24" font-family="Helvetica"><tspan x="0" y="0">...</tspan></text>
    <text id="_...-2" data-name="..." transform="translate(40 50)" fill="#706f6f" font-size="24" font-family="Helvetica"><tspan x="0" y="0">...</tspan></text>
    <path id="Path_8966" data-name="Path 8966" d="M415.615,2062.93l8.935,8.935-8.935,8.935" transform="translate(-406.615 -1789.8)" fill="none" stroke="#06c" stroke-width="2"/>
    <path id="Path_8966-2" data-name="Path 8966" d="M415.615,2062.93l8.935,8.935-8.935,8.935" transform="translate(-375.615 -1788.907)" fill="none" stroke="#ccc" stroke-width="2"/>
    <path id="Path_8966-3" data-name="Path 8966" d="M415.615,2062.93l8.935,8.935-2.978,2.978-5.957,5.957" transform="translate(-394.615 -1789.8)" fill="none" stroke="#06c" stroke-width="2"/>
    <path id="Path_8966-4" data-name="Path 8966" d="M415.615,2062.93l8.935,8.935-2.978,2.978-5.957,5.957" transform="translate(-363.615 -1788.907)" fill="none" stroke="#ccc" stroke-width="2"/>
    <g id="noun_write_2807466" transform="translate(6.26 152.233)">
      <g id="Layer_2" data-name="Layer 2" transform="translate(1.74 3.339)">
        <rect id="Rectangle_4354" data-name="Rectangle 4354" width="4.704" height="2.352" rx="1" transform="translate(5.868 18.123)" fill="#fff"/>
        <rect id="Rectangle_4355" data-name="Rectangle 4355" width="11.76" height="2.352" rx="1" transform="translate(5.868 23.298)" fill="#fff"/>
        <path id="Path_8523" data-name="Path 8523" d="M28.577,34.947H5.468A3.728,3.728,0,0,1,1.74,31.219V8.1A3.728,3.728,0,0,1,5.468,4.37H18.193a1.176,1.176,0,0,1,1.176,1.176h0a1.176,1.176,0,0,1-1.176,1.176H5.468A1.376,1.376,0,0,0,4.08,8.1V31.207a1.388,1.388,0,0,0,1.376,1.376H28.577a1.388,1.388,0,0,0,1.376-1.376V18.482a1.176,1.176,0,0,1,1.176-1.176h0A1.176,1.176,0,0,1,32.3,18.482V31.207a3.728,3.728,0,0,1-3.728,3.74Z" transform="translate(-1.74 -3.158)" fill="#fff"/>
        <path id="Path_8524" data-name="Path 8524" d="M16.946,21.757H13.1V17.911a2.752,2.752,0,0,1,.811-1.952L25.73,4.116a2.611,2.611,0,0,1,3.716,0l1.3,1.3a2.611,2.611,0,0,1,0,3.693L18.863,20.945A2.787,2.787,0,0,1,16.946,21.757ZM15.452,19.4h1.494a.412.412,0,0,0,.294-.118L29.059,7.456a.259.259,0,0,0,0-.365L27.753,5.8a.259.259,0,0,0-.365,0L15.57,17.629a.412.412,0,0,0-.118.294Z" transform="translate(0.26 -3.339)" fill="#fff"/>
      </g>
    </g>
    <g id="noun_write_2807466-2" data-name="noun_write_2807466" transform="translate(50.76 152.233)">
      <g id="Layer_2-2" data-name="Layer 2" transform="translate(1.74 3.339)">
        <rect id="Rectangle_4354-2" data-name="Rectangle 4354" width="4.704" height="2.352" rx="1" transform="translate(5.868 18.123)" fill="#009ce5"/>
        <rect id="Rectangle_4355-2" data-name="Rectangle 4355" width="11.76" height="2.352" rx="1" transform="translate(5.868 23.298)" fill="#009ce5"/>
        <path id="Path_8523-2" data-name="Path 8523" d="M28.577,34.947H5.468A3.728,3.728,0,0,1,1.74,31.219V8.1A3.728,3.728,0,0,1,5.468,4.37H18.193a1.176,1.176,0,0,1,1.176,1.176h0a1.176,1.176,0,0,1-1.176,1.176H5.468A1.376,1.376,0,0,0,4.08,8.1V31.207a1.388,1.388,0,0,0,1.376,1.376H28.577a1.388,1.388,0,0,0,1.376-1.376V18.482a1.176,1.176,0,0,1,1.176-1.176h0A1.176,1.176,0,0,1,32.3,18.482V31.207a3.728,3.728,0,0,1-3.728,3.74Z" transform="translate(-1.74 -3.158)" fill="#009ce5"/>
        <path id="Path_8524-2" data-name="Path 8524" d="M16.946,21.757H13.1V17.911a2.752,2.752,0,0,1,.811-1.952L25.73,4.116a2.611,2.611,0,0,1,3.716,0l1.3,1.3a2.611,2.611,0,0,1,0,3.693L18.863,20.945A2.787,2.787,0,0,1,16.946,21.757ZM15.452,19.4h1.494a.412.412,0,0,0,.294-.118L29.059,7.456a.259.259,0,0,0,0-.365L27.753,5.8a.259.259,0,0,0-.365,0L15.57,17.629a.412.412,0,0,0-.118.294Z" transform="translate(0.26 -3.339)" fill="#009ce5"/>
      </g>
    </g>
    <path id="Path_8969" data-name="Path 8969" d="M424.549,2062.93l-8.935,8.935,8.935,8.935" transform="translate(-405.549 -1818.417)" fill="none" stroke="#06c" stroke-width="2"/>
    <path id="Path_8969-2" data-name="Path 8969" d="M424.549,2062.93l-8.935,8.935,8.935,8.935" transform="translate(-375.614 -1819.417)" fill="none" stroke="#ccc" stroke-width="2"/>
    <path id="Path_8969-3" data-name="Path 8969" d="M424.549,2062.93l-8.935,8.935,8.935,8.935" transform="translate(-394.082 -1818.417)" fill="none" stroke="#06c" stroke-width="2"/>
    <path id="Path_8969-4" data-name="Path 8969" d="M424.549,2062.93l-8.935,8.935,8.935,8.935" transform="translate(-364.147 -1819.417)" fill="none" stroke="#ccc" stroke-width="2"/>
    <g id="noun_products_1375567" transform="translate(-3 189)">
      <g id="Group_12408" data-name="Group 12408" transform="translate(11 11)">
        <path id="Path_8377" data-name="Path 8377" d="M20.517,11h-5.7A3.8,3.8,0,0,0,11,14.821v5.732a3.793,3.793,0,0,0,3.821,3.785h5.732a3.793,3.793,0,0,0,3.785-3.821v-5.7A3.8,3.8,0,0,0,20.517,11Zm.937,9.517a.931.931,0,0,1-.937.937h-5.7a.931.931,0,0,1-.937-.937v-5.7a.931.931,0,0,1,.937-.937h5.732a.931.931,0,0,1,.937.937v5.7Z" transform="translate(-11 -11)" fill="#fff"/>
        <path id="Path_8378" data-name="Path 8378" d="M55.821,24.338h5.732a3.793,3.793,0,0,0,3.785-3.821v-5.7A3.8,3.8,0,0,0,61.517,11h-5.7A3.8,3.8,0,0,0,52,14.821v5.732a3.793,3.793,0,0,0,3.821,3.785Zm-.937-9.517a.931.931,0,0,1,.937-.937h5.732a.931.931,0,0,1,.937.937v5.732a.931.931,0,0,1-.937.937H55.821a.931.931,0,0,1-.937-.937Z" transform="translate(-37.22 -11)" fill="#fff"/>
        <path id="Path_8379" data-name="Path 8379" d="M20.517,52h-5.7A3.8,3.8,0,0,0,11,55.821v5.732a3.793,3.793,0,0,0,3.821,3.785h5.732a3.793,3.793,0,0,0,3.785-3.821v-5.7A3.8,3.8,0,0,0,20.517,52Zm.937,9.517a.931.931,0,0,1-.937.937h-5.7a.931.931,0,0,1-.937-.937v-5.7a.931.931,0,0,1,.937-.937h5.732a.931.931,0,0,1,.937.937v5.7Z" transform="translate(-11 -37.22)" fill="#fff"/>
        <path id="Path_8380" data-name="Path 8380" d="M58.669,65.338A6.669,6.669,0,1,0,52,58.669a6.669,6.669,0,0,0,6.669,6.669Zm0-10.454a3.785,3.785,0,1,1-3.785,3.785,3.785,3.785,0,0,1,3.785-3.785Z" transform="translate(-37.22 -37.22)" fill="#fff"/>
      </g>
    </g>
    <g id="noun_products_1375567-2" data-name="noun_products_1375567" transform="translate(40.882 189)">
      <g id="Group_12408-2" data-name="Group 12408" transform="translate(11 11)">
        <path id="Path_8377-2" data-name="Path 8377" d="M20.517,11h-5.7A3.8,3.8,0,0,0,11,14.821v5.732a3.793,3.793,0,0,0,3.821,3.785h5.732a3.793,3.793,0,0,0,3.785-3.821v-5.7A3.8,3.8,0,0,0,20.517,11Zm.937,9.517a.931.931,0,0,1-.937.937h-5.7a.931.931,0,0,1-.937-.937v-5.7a.931.931,0,0,1,.937-.937h5.732a.931.931,0,0,1,.937.937v5.7Z" transform="translate(-11 -11)" fill="#009ce5"/>
        <path id="Path_8378-2" data-name="Path 8378" d="M55.821,24.338h5.732a3.793,3.793,0,0,0,3.785-3.821v-5.7A3.8,3.8,0,0,0,61.517,11h-5.7A3.8,3.8,0,0,0,52,14.821v5.732a3.793,3.793,0,0,0,3.821,3.785Zm-.937-9.517a.931.931,0,0,1,.937-.937h5.732a.931.931,0,0,1,.937.937v5.732a.931.931,0,0,1-.937.937H55.821a.931.931,0,0,1-.937-.937Z" transform="translate(-37.22 -11)" fill="#009ce5"/>
        <path id="Path_8379-2" data-name="Path 8379" d="M20.517,52h-5.7A3.8,3.8,0,0,0,11,55.821v5.732a3.793,3.793,0,0,0,3.821,3.785h5.732a3.793,3.793,0,0,0,3.785-3.821v-5.7A3.8,3.8,0,0,0,20.517,52Zm.937,9.517a.931.931,0,0,1-.937.937h-5.7a.931.931,0,0,1-.937-.937v-5.7a.931.931,0,0,1,.937-.937h5.732a.931.931,0,0,1,.937.937v5.7Z" transform="translate(-11 -37.22)" fill="#009ce5"/>
        <path id="Path_8380-2" data-name="Path 8380" d="M58.669,65.338A6.669,6.669,0,1,0,52,58.669a6.669,6.669,0,0,0,6.669,6.669Zm0-10.454a3.785,3.785,0,1,1-3.785,3.785,3.785,3.785,0,0,1,3.785-3.785Z" transform="translate(-37.22 -37.22)" fill="#009ce5"/>
      </g>
    </g>
    <g id="noun_Paper_3669128" transform="translate(6.662 63.721)">
      <g id="Group_12409" data-name="Group 12409" transform="translate(1.588 0.529)">
        <g id="Path_8381" data-name="Path 8381" transform="translate(-1.588 -0.529)">
          <path id="Path_1" data-name="Path 1" d="M26.2,32.759H9.077a3.35,3.35,0,0,1-3.332-3.337v-.945H4.8a3.353,3.353,0,0,1-3.337-3.337V16.583a1.171,1.171,0,0,1,.318-.867,1.227,1.227,0,0,1,.877-.352,1.227,1.227,0,0,1,.877.352,1.173,1.173,0,0,1,.318.87v8.56a.937.937,0,0,0,.269.673.95.95,0,0,0,.677.268H21.922a.91.91,0,0,0,.941-.941V3.74a.912.912,0,0,0-.941-.945H9.077a.938.938,0,0,0-.666.28L4.129,7.352a.936.936,0,0,0-.276.666v2.142a1.171,1.171,0,0,1-.318.867,1.227,1.227,0,0,1-.877.352,1.227,1.227,0,0,1-.877-.352,1.173,1.173,0,0,1-.318-.87l0-2.14a3.358,3.358,0,0,1,.972-2.36L6.718,1.38A3.36,3.36,0,0,1,9.077.4H21.922A3.338,3.338,0,0,1,25.254,3.74v.946H26.2a3.353,3.353,0,0,1,3.337,3.335v21.4A3.354,3.354,0,0,1,26.2,32.759ZM8.131,28.477v.945a.921.921,0,0,0,.946.945H26.2a.924.924,0,0,0,.945-.945V8.021a.924.924,0,0,0-.945-.945h-.945V25.145a3.336,3.336,0,0,1-3.332,3.332Zm.946-8.56a1.2,1.2,0,0,1,0-2.391H17.64a1.2,1.2,0,0,1,0,2.391Zm8.588-4.282H9.077a1.2,1.2,0,0,1,0-2.39h8.59a1.2,1.2,0,0,1,0,2.391Zm.046-4.28h0l-.074,0H9.081l-.073,0a1.2,1.2,0,0,1,0-2.391l.073,0h8.556l.065,0h.009a1.2,1.2,0,0,1,0,2.391Z" fill="#fff" fill-rule="evenodd"/>
          <path id="Path_2" data-name="Path 2" d="M9.077.529a3.214,3.214,0,0,0-2.271.94L2.528,5.746a3.212,3.212,0,0,0-.935,2.272l0,2.142a1.07,1.07,0,1,0,2.14,0V8.018a1.064,1.064,0,0,1,.312-.755L8.323,2.986a1.068,1.068,0,0,1,.755-.317H21.922a1.042,1.042,0,0,1,1.066,1.07V25.145a1.038,1.038,0,0,1-1.066,1.066H4.8a1.043,1.043,0,0,1-1.071-1.066V16.583a1.07,1.07,0,1,0-2.14,0v8.558A3.228,3.228,0,0,0,4.8,28.352H5.87v1.07a3.225,3.225,0,0,0,3.207,3.212H26.2a3.229,3.229,0,0,0,3.212-3.212V8.021A3.228,3.228,0,0,0,26.2,4.811h-1.07V3.74A3.225,3.225,0,0,0,21.922.529H9.077M26.2,30.493H9.077a1.046,1.046,0,0,1-1.071-1.07v-1.07H21.922a3.222,3.222,0,0,0,3.207-3.207V6.951H26.2a1.045,1.045,0,0,1,1.07,1.07v21.4a1.045,1.045,0,0,1-1.07,1.07M9.008,9.09a1.07,1.07,0,1,0,.069,2.138H17.64A1.07,1.07,0,1,0,17.7,9.09l-.062,0H9.077l-.069,0m8.656,4.279H9.077a1.07,1.07,0,0,0,0,2.14H17.64a1.07,1.07,0,1,0,.024-2.141m-.024,4.282H9.077a1.07,1.07,0,0,0,0,2.141H17.64a1.07,1.07,0,1,0,0-2.141M9.077.279H21.922a3.463,3.463,0,0,1,3.457,3.46v.821h.82a3.478,3.478,0,0,1,3.462,3.46v21.4A3.479,3.479,0,0,1,26.2,32.884H9.077A3.475,3.475,0,0,1,5.62,29.422V28.6H4.8a3.478,3.478,0,0,1-3.462-3.462V16.585a1.294,1.294,0,0,1,.354-.957,1.352,1.352,0,0,1,.966-.39,1.352,1.352,0,0,1,.966.39,1.294,1.294,0,0,1,.354.957v8.56a.814.814,0,0,0,.232.585.826.826,0,0,0,.589.231H21.922a.789.789,0,0,0,.816-.816V3.74a.791.791,0,0,0-.816-.82H9.077a.814.814,0,0,0-.578.243L4.218,7.44a.812.812,0,0,0-.239.578v2.14a1.294,1.294,0,0,1-.354.957,1.352,1.352,0,0,1-.966.39,1.352,1.352,0,0,1-.966-.39,1.294,1.294,0,0,1-.354-.957l0-2.14A3.484,3.484,0,0,1,2.351,5.569L6.629,1.292A3.486,3.486,0,0,1,9.077.279ZM26.2,30.243a.793.793,0,0,0,.82-.82V8.021a.793.793,0,0,0-.82-.82h-.82V25.145A3.461,3.461,0,0,1,21.922,28.6H8.256v.82a.8.8,0,0,0,.821.82ZM9.008,8.84l.076,0h8.548l.068,0h.01a1.32,1.32,0,1,1-.078,2.638H9.085A1.32,1.32,0,1,1,9.008,8.84Zm8.656,4.279a1.32,1.32,0,1,1-.027,2.641H9.072a1.32,1.32,0,0,1,0-2.64h8.593ZM17.64,17.4h0a1.32,1.32,0,0,1,0,2.641H9.077a1.32,1.32,0,0,1,0-2.641Z" fill="#fff" fill-rule="evenodd"/>
        </g>
      </g>
    </g>
    <g id="noun_Paper_3669128-2" data-name="noun_Paper_3669128" transform="translate(51.162 63.721)">
      <g id="Group_12409-2" data-name="Group 12409" transform="translate(1.588 0.529)">
        <g id="Path_8381-2" data-name="Path 8381" transform="translate(-1.588 -0.529)">
          <path id="Path_3" data-name="Path 3" d="M26.2,32.759H9.077a3.35,3.35,0,0,1-3.332-3.337v-.945H4.8a3.353,3.353,0,0,1-3.337-3.337V16.583a1.171,1.171,0,0,1,.318-.867,1.227,1.227,0,0,1,.877-.352,1.227,1.227,0,0,1,.877.352,1.173,1.173,0,0,1,.318.87v8.56a.937.937,0,0,0,.269.673.95.95,0,0,0,.677.268H21.922a.91.91,0,0,0,.941-.941V3.74a.912.912,0,0,0-.941-.945H9.077a.938.938,0,0,0-.666.28L4.129,7.352a.936.936,0,0,0-.276.666v2.142a1.171,1.171,0,0,1-.318.867,1.227,1.227,0,0,1-.877.352,1.227,1.227,0,0,1-.877-.352,1.173,1.173,0,0,1-.318-.87l0-2.14a3.358,3.358,0,0,1,.972-2.36L6.718,1.38A3.36,3.36,0,0,1,9.077.4H21.922A3.338,3.338,0,0,1,25.254,3.74v.946H26.2a3.353,3.353,0,0,1,3.337,3.335v21.4A3.354,3.354,0,0,1,26.2,32.759ZM8.131,28.477v.945a.921.921,0,0,0,.946.945H26.2a.924.924,0,0,0,.945-.945V8.021a.924.924,0,0,0-.945-.945h-.945V25.145a3.336,3.336,0,0,1-3.332,3.332Zm.946-8.56a1.2,1.2,0,0,1,0-2.391H17.64a1.2,1.2,0,0,1,0,2.391Zm8.588-4.282H9.077a1.2,1.2,0,0,1,0-2.39h8.59a1.2,1.2,0,0,1,0,2.391Zm.046-4.28h0l-.074,0H9.081l-.073,0a1.2,1.2,0,0,1,0-2.391l.073,0h8.556l.065,0h.009a1.2,1.2,0,0,1,0,2.391Z" fill="#009ce5" fill-rule="evenodd"/>
          <path id="Path_4" data-name="Path 4" d="M9.077.529a3.214,3.214,0,0,0-2.271.94L2.528,5.746a3.212,3.212,0,0,0-.935,2.272l0,2.142a1.07,1.07,0,1,0,2.14,0V8.018a1.064,1.064,0,0,1,.312-.755L8.323,2.986a1.068,1.068,0,0,1,.755-.317H21.922a1.042,1.042,0,0,1,1.066,1.07V25.145a1.038,1.038,0,0,1-1.066,1.066H4.8a1.043,1.043,0,0,1-1.071-1.066V16.583a1.07,1.07,0,1,0-2.14,0v8.558A3.228,3.228,0,0,0,4.8,28.352H5.87v1.07a3.225,3.225,0,0,0,3.207,3.212H26.2a3.229,3.229,0,0,0,3.212-3.212V8.021A3.228,3.228,0,0,0,26.2,4.811h-1.07V3.74A3.225,3.225,0,0,0,21.922.529H9.077M26.2,30.493H9.077a1.046,1.046,0,0,1-1.071-1.07v-1.07H21.922a3.222,3.222,0,0,0,3.207-3.207V6.951H26.2a1.045,1.045,0,0,1,1.07,1.07v21.4a1.045,1.045,0,0,1-1.07,1.07M9.008,9.09a1.07,1.07,0,1,0,.069,2.138H17.64A1.07,1.07,0,1,0,17.7,9.09l-.062,0H9.077l-.069,0m8.656,4.279H9.077a1.07,1.07,0,0,0,0,2.14H17.64a1.07,1.07,0,1,0,.024-2.141m-.024,4.282H9.077a1.07,1.07,0,0,0,0,2.141H17.64a1.07,1.07,0,1,0,0-2.141M9.077.279H21.922a3.463,3.463,0,0,1,3.457,3.46v.821h.82a3.478,3.478,0,0,1,3.462,3.46v21.4A3.479,3.479,0,0,1,26.2,32.884H9.077A3.475,3.475,0,0,1,5.62,29.422V28.6H4.8a3.478,3.478,0,0,1-3.462-3.462V16.585a1.294,1.294,0,0,1,.354-.957,1.352,1.352,0,0,1,.966-.39,1.352,1.352,0,0,1,.966.39,1.294,1.294,0,0,1,.354.957v8.56a.814.814,0,0,0,.232.585.826.826,0,0,0,.589.231H21.922a.789.789,0,0,0,.816-.816V3.74a.791.791,0,0,0-.816-.82H9.077a.814.814,0,0,0-.578.243L4.218,7.44a.812.812,0,0,0-.239.578v2.14a1.294,1.294,0,0,1-.354.957,1.352,1.352,0,0,1-.966.39,1.352,1.352,0,0,1-.966-.39,1.294,1.294,0,0,1-.354-.957l0-2.14A3.484,3.484,0,0,1,2.351,5.569L6.629,1.292A3.486,3.486,0,0,1,9.077.279ZM26.2,30.243a.793.793,0,0,0,.82-.82V8.021a.793.793,0,0,0-.82-.82h-.82V25.145A3.461,3.461,0,0,1,21.922,28.6H8.256v.82a.8.8,0,0,0,.821.82ZM9.008,8.84l.076,0h8.548l.068,0h.01a1.32,1.32,0,1,1-.078,2.638H9.085A1.32,1.32,0,1,1,9.008,8.84Zm8.656,4.279a1.32,1.32,0,1,1-.027,2.641H9.072a1.32,1.32,0,0,1,0-2.64h8.593ZM17.64,17.4h0a1.32,1.32,0,0,1,0,2.641H9.077a1.32,1.32,0,0,1,0-2.641Z" fill="#009ce5" fill-rule="evenodd"/>
        </g>
      </g>
    </g>
    <g id="Group_12531" data-name="Group 12531" transform="translate(8 8.002)">
      <path id="Path_8508" data-name="Path 8508" d="M415.615,2062.93l8.935,8.935-8.935,8.935" transform="translate(-393.951 -2062.932)" fill="none" stroke="#ccc" stroke-width="2"/>
      <path id="Path_8510" data-name="Path 8510" d="M398.431,2077h29.826" transform="translate(-398.431 -2068.065)" fill="none" stroke="#ccc" stroke-width="2"/>
    </g>
    <g id="Group_12531-2" data-name="Group 12531" transform="translate(48 8.002)">
      <path id="Path_8508-2" data-name="Path 8508" d="M415.615,2062.93l8.935,8.935-8.935,8.935" transform="translate(-393.951 -2062.932)" fill="none" stroke="#706f6f" stroke-width="2"/>
      <path id="Path_8510-2" data-name="Path 8510" d="M398.431,2077h29.826" transform="translate(-398.431 -2068.065)" fill="none" stroke="#706f6f" stroke-width="2"/>
    </g>
    <g id="Group_12531-3" data-name="Group 12531" transform="translate(88 8.002)">
      <path id="Path_8508-3" data-name="Path 8508" d="M415.615,2062.93l8.935,8.935-8.935,8.935" transform="translate(-393.951 -2062.932)" fill="none" stroke="#036" stroke-width="2"/>
      <path id="Path_8510-3" data-name="Path 8510" d="M398.431,2077h29.826" transform="translate(-398.431 -2068.065)" fill="none" stroke="#036" stroke-width="2"/>
    </g>
    <g id="Group_12531-4" data-name="Group 12531" transform="translate(128 8.002)">
      <path id="Path_8508-4" data-name="Path 8508" d="M415.615,2062.93l8.935,8.935-8.935,8.935" transform="translate(-393.951 -2062.932)" fill="none" stroke="#009ce5" stroke-width="2"/>
      <path id="Path_8510-4" data-name="Path 8510" d="M398.431,2077h29.826" transform="translate(-398.431 -2068.065)" fill="none" stroke="#009ce5" stroke-width="2"/>
    </g>
    <g id="Group_12531-5" data-name="Group 12531" transform="translate(168 8.002)">
      <path id="Path_8508-5" data-name="Path 8508" d="M415.615,2062.93l8.935,8.935-8.935,8.935" transform="translate(-393.951 -2062.932)" fill="none" stroke="#06c" stroke-width="2"/>
      <path id="Path_8510-5" data-name="Path 8510" d="M398.431,2077h29.826" transform="translate(-398.431 -2068.065)" fill="none" stroke="#06c" stroke-width="2"/>
    </g>
    <g id="Group_12531-6" data-name="Group 12531" transform="translate(208 8.002)">
      <path id="Path_8508-6" data-name="Path 8508" d="M415.615,2062.93l8.935,8.935-8.935,8.935" transform="translate(-393.951 -2062.932)" fill="none" stroke="#fff" stroke-width="2"/>
      <path id="Path_8510-6" data-name="Path 8510" d="M398.431,2077h29.826" transform="translate(-398.431 -2068.065)" fill="none" stroke="#fff" stroke-width="2"/>
    </g>
  </g>
</svg>
