<svg xmlns="http://www.w3.org/2000/svg" width="20.529" height="16.683" viewBox="0 0 20.529 16.683">
  <path id="Path_8405" data-name="Path 8405" d="M269.007,154.087a11.98,11.98,0,0,0,18.428-10.637,8.536,8.536,0,0,0,2.1-2.181,8.4,8.4,0,0,1-2.418.663,4.217,4.217,0,0,0,1.852-2.33,8.45,8.45,0,0,1-2.673,1.022,4.215,4.215,0,0,0-7.177,3.842,11.953,11.953,0,0,1-8.681-4.4,4.217,4.217,0,0,0,1.3,5.623,4.2,4.2,0,0,1-1.908-.527,4.218,4.218,0,0,0,3.378,4.184,4.217,4.217,0,0,1-1.9.071,4.213,4.213,0,0,0,3.934,2.926A8.47,8.47,0,0,1,269.007,154.087Z" transform="translate(-269.007 -139.296)" fill="#fff"/>
</svg>
