<svg xmlns="http://www.w3.org/2000/svg" width="17.786" height="15.35" viewBox="0 0 17.786 15.35">
  <path id="vimeo-icon" d="M17.777,3.552q-.12,2.591-3.627,7.1-3.627,4.7-6.138,4.7-1.555,0-2.631-2.87L3.945,7.219q-.8-2.87-1.714-2.87a5.482,5.482,0,0,0-1.4.837L0,4.11Q1.3,2.964,2.59,1.8A5.871,5.871,0,0,1,5.221.2Q7.293,0,7.772,3.034,8.29,6.3,8.489,7.1,9.087,9.81,9.8,9.81q.558,0,1.674-1.754a6.88,6.88,0,0,0,1.2-2.671q.159-1.515-1.2-1.515a3.445,3.445,0,0,0-1.315.279Q11.479-.115,15.186,0q2.75.08,2.591,3.548Z" transform="translate(0.001 -0.001)" fill="#fff"/>
</svg>
