<svg xmlns="http://www.w3.org/2000/svg" width="28.172" height="28.176" viewBox="0 0 28.172 28.176">
  <g id="noun_people_to_people_3485979" data-name="noun_people to people_3485979" transform="translate(-0.5 -8)">
    <g id="Group_12410" data-name="Group 12410" transform="translate(0.5 8)">
      <path id="Path_8382" data-name="Path 8382" d="M2,16.8A8.8,8.8,0,1,0,10.8,8,8.8,8.8,0,0,0,2,16.8Zm14.088,0A5.283,5.283,0,1,1,10.8,11.522,5.283,5.283,0,0,1,16.088,16.8Z" transform="translate(3.283 -8)" fill="#ffffff"/>
      <path id="Path_8387" data-name="Path 8387" d="M19.892,14H9.284A10.608,10.608,0,0,0,.852,18.226,1.761,1.761,0,1,0,3.67,20.34,7.076,7.076,0,0,1,9.3,17.522H19.892A7.076,7.076,0,0,1,25.5,20.34a1.761,1.761,0,0,0,2.818-2.113A10.6,10.6,0,0,0,19.892,14Z" transform="translate(-0.5 7.132)" fill="#ffffff"/>
    </g>
  </g>
</svg>
