<svg xmlns="http://www.w3.org/2000/svg" width="31.777" height="31.789" viewBox="0 0 31.777 31.789">
  <g id="noun_write_2807466" transform="translate(-1.74 -3.339)">
    <g id="Layer_2" data-name="Layer 2" transform="translate(1.74 3.339)">
      <rect id="Rectangle_4354" data-name="Rectangle 4354" width="4.704" height="2.352" rx="1" transform="translate(5.868 18.123)" fill="#ffffff"/>
      <rect id="Rectangle_4355" data-name="Rectangle 4355" width="11.76" height="2.352" rx="1" transform="translate(5.868 23.298)" fill="#ffffff"/>
      <path id="Path_8523" data-name="Path 8523" d="M28.577,34.947H5.468A3.728,3.728,0,0,1,1.74,31.219V8.1A3.728,3.728,0,0,1,5.468,4.37H18.193a1.176,1.176,0,0,1,1.176,1.176h0a1.176,1.176,0,0,1-1.176,1.176H5.468A1.376,1.376,0,0,0,4.08,8.1V31.207a1.388,1.388,0,0,0,1.376,1.376H28.577a1.388,1.388,0,0,0,1.376-1.376V18.482a1.176,1.176,0,0,1,1.176-1.176h0A1.176,1.176,0,0,1,32.3,18.482V31.207a3.728,3.728,0,0,1-3.728,3.74Z" transform="translate(-1.74 -3.158)" fill="#ffffff"/>
      <path id="Path_8524" data-name="Path 8524" d="M16.946,21.757H13.1V17.911a2.752,2.752,0,0,1,.811-1.952L25.73,4.116a2.611,2.611,0,0,1,3.716,0l1.305,1.305a2.611,2.611,0,0,1,0,3.693L18.863,20.945A2.787,2.787,0,0,1,16.946,21.757ZM15.452,19.4h1.494a.412.412,0,0,0,.294-.118L29.059,7.456a.259.259,0,0,0,0-.365L27.753,5.8a.259.259,0,0,0-.365,0L15.57,17.629a.412.412,0,0,0-.118.294Z" transform="translate(0.26 -3.339)" fill="#ffffff"/>
    </g>
  </g>
</svg>
