<svg xmlns="http://www.w3.org/2000/svg" width="28.118" height="28.118" viewBox="0 0 28.118 28.118">
  <g id="noun_products_1375567" transform="translate(-11 -11)">
    <g id="Group_12408" data-name="Group 12408" transform="translate(11 11)">
      <path id="Path_8377" data-name="Path 8377" d="M20.517,11h-5.7A3.8,3.8,0,0,0,11,14.821v5.732a3.793,3.793,0,0,0,3.821,3.785h5.732a3.793,3.793,0,0,0,3.785-3.821v-5.7A3.8,3.8,0,0,0,20.517,11Zm.937,9.517a.931.931,0,0,1-.937.937h-5.7a.931.931,0,0,1-.937-.937v-5.7a.931.931,0,0,1,.937-.937h5.732a.931.931,0,0,1,.937.937v5.7Z" transform="translate(-11 -11)" fill="#ffffff"/>
      <path id="Path_8378" data-name="Path 8378" d="M55.821,24.338h5.732a3.793,3.793,0,0,0,3.785-3.821v-5.7A3.8,3.8,0,0,0,61.517,11h-5.7A3.8,3.8,0,0,0,52,14.821v5.732A3.793,3.793,0,0,0,55.821,24.338Zm-.937-9.517a.931.931,0,0,1,.937-.937h5.732a.931.931,0,0,1,.937.937v5.732a.931.931,0,0,1-.937.937H55.821a.931.931,0,0,1-.937-.937Z" transform="translate(-37.22 -11)" fill="#ffffff"/>
      <path id="Path_8379" data-name="Path 8379" d="M20.517,52h-5.7A3.8,3.8,0,0,0,11,55.821v5.732a3.793,3.793,0,0,0,3.821,3.785h5.732a3.793,3.793,0,0,0,3.785-3.821v-5.7A3.8,3.8,0,0,0,20.517,52Zm.937,9.517a.931.931,0,0,1-.937.937h-5.7a.931.931,0,0,1-.937-.937v-5.7a.931.931,0,0,1,.937-.937h5.732a.931.931,0,0,1,.937.937v5.7Z" transform="translate(-11 -37.22)" fill="#ffffff"/>
      <path id="Path_8380" data-name="Path 8380" d="M58.669,65.338A6.669,6.669,0,1,0,52,58.669,6.677,6.677,0,0,0,58.669,65.338Zm0-10.454a3.785,3.785,0,1,1-3.785,3.785A3.785,3.785,0,0,1,58.669,54.884Z" transform="translate(-37.22 -37.22)" fill="#ffffff"/>
    </g>
  </g>
</svg>
