<svg xmlns="http://www.w3.org/2000/svg" width="28.323" height="32.605" viewBox="0 0 28.323 32.605">
  <g id="noun_Paper_3669128" transform="translate(-1.338 -0.279)">
    <g id="Group_12409" data-name="Group 12409" transform="translate(1.588 0.529)">
      <g id="Path_8381" data-name="Path 8381" transform="translate(-1.588 -0.529)" fill="#ffffff" fill-rule="evenodd">
        <path d="M 26.19969749450684 32.75887298583984 L 9.077187538146973 32.75887298583984 C 8.192697525024414 32.75887298583984 7.357306957244873 32.41001510620117 6.724906921386719 31.77656364440918 C 6.092747211456299 31.14334487915039 5.744687080383301 30.30726432800293 5.744847297668457 29.42233467102051 L 5.744847297668457 28.47719383239746 L 4.799696922302246 28.47719383239746 C 3.914927244186401 28.47719383239746 3.078777074813843 28.12839508056641 2.445277214050293 27.49505424499512 C 1.811627149581909 26.86156463623047 1.462837100028992 26.02541351318359 1.46317720413208 25.140625 L 1.46317720413208 16.58256530761719 C 1.455477118492126 16.23710441589355 1.565587162971497 15.93629455566406 1.781627178192139 15.71540451049805 C 2.00042724609375 15.49169445037842 2.319977045059204 15.36339473724365 2.658337116241455 15.36339473724365 C 2.996697187423706 15.36339473724365 3.316247224807739 15.49169445037842 3.535037040710449 15.71540451049805 C 3.751077175140381 15.93629455566406 3.861187219619751 16.23710441589355 3.85345721244812 16.58533477783203 L 3.853487253189087 25.14485359191895 C 3.853387117385864 25.40648460388184 3.949047088623047 25.64561462402344 4.122837066650391 25.81824493408203 C 4.296546936035156 25.99080467224121 4.536927223205566 26.08583450317383 4.799696922302246 26.08583450317383 L 21.92220687866211 26.08583450317383 C 22.46744728088379 26.08583450317383 22.86318778991699 25.69009399414062 22.86318778991699 25.14485359191895 L 22.86318778991699 3.739634275436401 C 22.86318778991699 3.191974401473999 22.46744728088379 2.794474363327026 21.92220687866211 2.794474363327026 L 9.077187538146973 2.794474363327026 C 8.828186988830566 2.794474363327026 8.591607093811035 2.89393424987793 8.411026954650879 3.074524402618408 L 4.129317283630371 7.352054595947266 C 3.951487064361572 7.529834270477295 3.853527069091797 7.766414165496826 3.853487253189087 8.018184661865234 L 3.853487253189087 10.16057395935059 C 3.861187219619751 10.5060338973999 3.751077175140381 10.80684471130371 3.535037040710449 11.02773475646973 C 3.316247224807739 11.25144481658936 2.996697187423706 11.37974452972412 2.658337116241455 11.37974452972412 C 2.319977045059204 11.37974452972412 2.00042724609375 11.25144481658936 1.781627178192139 11.02773475646973 C 1.565587162971497 10.80684471130371 1.455477118492126 10.5060338973999 1.463207125663757 10.15780448913574 L 1.467357158660889 8.017924308776855 C 1.467467188835144 7.135524272918701 1.821737170219421 6.275204181671143 2.439317226409912 5.657774448394775 L 6.717857360839844 1.380284309387207 C 7.338326930999756 0.7599443793296814 8.198277473449707 0.4041643440723419 9.077187538146973 0.4041643440723419 L 21.92220687866211 0.4041643440723419 C 23.75965690612793 0.4041643440723419 25.25453758239746 1.90045440196991 25.25453758239746 3.739634275436401 L 25.25453758239746 4.685834407806396 L 26.19969749450684 4.685834407806396 C 27.08439636230469 4.685834407806396 27.92045783996582 5.034504413604736 28.55385780334473 5.667624473571777 C 29.18734741210938 6.300824165344238 29.53621673583984 7.136714458465576 29.53621673583984 8.021304130554199 L 29.53621673583984 29.42235374450684 C 29.53621673583984 30.30700492858887 29.18734741210938 31.14307403564453 28.55387687683105 31.77654457092285 C 27.92040634155273 32.41000366210938 27.08433723449707 32.75887298583984 26.19969749450684 32.75887298583984 Z M 8.130987167358398 28.47719383239746 L 8.130987167358398 29.42235374450684 C 8.130937576293945 29.68447494506836 8.226687431335449 29.92447471618652 8.400607109069824 30.09816360473633 C 8.574526786804199 30.27185440063477 8.814806938171387 30.36750411987305 9.077187538146973 30.36750411987305 L 26.19969749450684 30.36750411987305 C 26.73852729797363 30.36750411987305 27.14485740661621 29.96117401123047 27.14485740661621 29.42235374450684 L 27.14485740661621 8.021304130554199 C 27.14485740661621 7.482474327087402 26.73852729797363 7.076144218444824 26.19969749450684 7.076144218444824 L 25.25453758239746 7.076144218444824 L 25.25453758239746 25.14485359191895 C 25.25453758239746 26.98231506347656 23.75965690612793 28.47719383239746 21.92220687866211 28.47719383239746 L 8.130987167358398 28.47719383239746 Z M 9.077187538146973 19.91724395751953 C 8.418026924133301 19.91724395751953 7.881767272949219 19.38098526000977 7.881767272949219 18.72182464599609 C 7.881767272949219 18.06281471252441 8.417817115783691 17.52667427062988 9.076706886291504 17.52667427062988 L 17.64052772521973 17.52641487121582 C 18.29968643188477 17.52641487121582 18.83594703674316 18.06267356872559 18.83594703674316 18.72182464599609 C 18.83594703674316 19.38083457946777 18.29989624023438 19.91698455810547 17.64100646972656 19.91698455810547 L 9.077187538146973 19.91724395751953 Z M 17.6646671295166 15.63558483123779 C 17.65570640563965 15.63558483123779 17.64670753479004 15.63548469543457 17.63771629333496 15.63528442382812 L 9.077187538146973 15.63531398773193 C 8.430017471313477 15.62080478668213 7.905797004699707 15.08467483520508 7.905797004699707 14.44015407562256 C 7.905797004699707 13.79563426971436 8.430017471313477 13.2595043182373 9.074377059936523 13.24502468109131 L 17.64052772521973 13.24499416351318 C 17.6467170715332 13.24482440948486 17.65567779541016 13.24472427368164 17.66464805603027 13.24472427368164 C 18.08664703369141 13.24472427368164 18.48158645629883 13.47079467773438 18.69533729553223 13.83470439910889 C 18.91469764709473 14.20816421508789 18.91469764709473 14.67215442657471 18.69533729553223 15.04560470581055 C 18.48158645629883 15.40951442718506 18.08665657043457 15.63558483123779 17.6646671295166 15.63558483123779 Z M 17.71047592163086 11.35592460632324 C 17.71045112609863 11.35592460632324 17.71044158935547 11.35592460632324 17.71041679382324 11.35592460632324 C 17.6859302520752 11.35592460632324 17.66128349304199 11.3551721572876 17.63662719726562 11.35364437103271 L 9.081020355224609 11.35364437103271 C 9.056741714477539 11.3551197052002 9.032578468322754 11.35584449768066 9.008457183837891 11.35584449768066 C 8.593357086181641 11.35584449768066 8.201766967773438 11.13526439666748 7.986516952514648 10.78018474578857 C 7.754837036132812 10.39800453186035 7.754837036132812 9.923164367675781 7.986516952514648 9.540964126586914 C 8.201766967773438 9.185884475708008 8.593357086181641 8.965304374694824 9.008457183837891 8.965304374694824 C 9.032557487487793 8.965304374694824 9.056767463684082 8.966029167175293 9.081023216247559 8.967504501342773 L 17.63669967651367 8.967504501342773 C 17.65828514099121 8.966226577758789 17.67989540100098 8.965527534484863 17.70151710510254 8.965414047241211 L 17.71028709411621 8.965384483337402 C 18.1441764831543 8.965384483337402 18.54457664489746 9.201044082641602 18.75521659851074 9.580404281616211 C 18.96768760681152 9.963024139404297 18.9542064666748 10.4304141998291 18.72003746032715 10.80016422271729 C 18.4996509552002 11.14816284179688 18.12223815917969 11.35592460632324 17.71047592163086 11.35592460632324 Z" stroke="none"/>
        <path d="M 9.077186584472656 0.5291557312011719 C 8.224456787109375 0.5291557312011719 7.406526565551758 0.8685150146484375 6.806236267089844 1.468685150146484 L 2.52769660949707 5.746173858642578 C 1.924457550048828 6.349254608154297 1.592466354370117 7.169654846191406 1.592357635498047 8.018163681030273 L 1.588176727294922 10.16057395935059 C 1.555797576904297 11.61946296691895 3.760858535766602 11.61946296691895 3.728487014770508 10.16057395935059 L 3.728487014770508 8.018163681030273 C 3.728527069091797 7.732065200805664 3.841817855834961 7.462724685668945 4.04096794128418 7.26362419128418 L 8.322637557983398 2.986133575439453 C 8.524868011474609 2.783893585205078 8.795116424560547 2.669473648071289 9.077186584472656 2.669473648071289 L 21.92220687866211 2.669473648071289 C 22.53354644775391 2.669473648071289 22.98817825317383 3.128293991088867 22.98817825317383 3.739633560180664 L 22.98817825317383 25.14485549926758 C 22.98817825317383 25.75623321533203 22.53357696533203 26.21083450317383 21.92220687866211 26.21083450317383 L 4.799686431884766 26.21083450317383 C 4.188327789306641 26.21083450317383 3.728256225585938 25.75574493408203 3.728487014770508 25.14485549926758 L 3.728487014770508 16.58256530761719 C 3.760858535766602 15.12367248535156 1.555797576904297 15.12367248535156 1.588176727294922 16.58256530761719 L 1.588176727294922 25.14067459106445 C 1.587507247924805 26.90127372741699 3.039617538452148 28.35219383239746 4.799686431884766 28.35219383239746 L 5.869846343994141 28.35219383239746 L 5.869846343994141 29.42235374450684 C 5.869527816772461 31.18270492553711 7.317106246948242 32.63386535644531 9.077186584472656 32.63386535644531 L 26.19969749450684 32.63386535644531 C 27.95977783203125 32.63386535644531 29.41121673583984 31.18245506286621 29.41121673583984 29.42235374450684 L 29.41121673583984 8.021305084228516 C 29.41121673583984 6.261215209960938 27.95978736877441 4.810834884643555 26.19969749450684 4.810834884643555 L 25.12953758239746 4.810834884643555 L 25.12953758239746 3.739633560180664 C 25.12953758239746 1.979543685913086 23.68230819702148 0.5291557312011719 21.92220687866211 0.5291557312011719 L 9.077186584472656 0.5291557312011719 M 26.19969749450684 30.49250411987305 L 9.077186584472656 30.49250411987305 C 8.465816497802734 30.49250411987305 8.005867004394531 30.03350448608398 8.005977630615234 29.42235374450684 L 8.005977630615234 28.35219383239746 L 21.92220687866211 28.35219383239746 C 23.68227767944336 28.35219383239746 25.12953758239746 26.90494537353516 25.12953758239746 25.14485549926758 L 25.12953758239746 6.951145172119141 L 26.19969749450684 6.951145172119141 C 26.81105804443359 6.951145172119141 27.26985740661621 7.409954071044922 27.26985740661621 8.021305084228516 L 27.26985740661621 29.42235374450684 C 27.26985740661621 30.03374481201172 26.81106758117676 30.49250411987305 26.19969749450684 30.49250411987305 M 9.008455276489258 9.090299606323242 C 8.636020660400391 9.090299606323242 8.288181304931641 9.284461975097656 8.093406677246094 9.605764389038086 C 7.886697769165039 9.946754455566406 7.886697769165039 10.3743839263916 8.093406677246094 10.71538352966309 C 8.300117492675781 11.05637359619141 8.679235458374023 11.25419998168945 9.077186584472656 11.2286434173584 L 17.64052581787109 11.2286434173584 C 18.03135681152344 11.25418663024902 18.4048957824707 11.06415557861328 18.61443710327148 10.73328399658203 C 18.8239860534668 10.40239524841309 18.83606719970703 9.983484268188477 18.64593696594238 9.641075134277344 C 18.45580673217773 9.298673629760742 18.09360504150391 9.087282180786133 17.70218658447266 9.090414047241211 C 17.68161773681641 9.090524673461914 17.66105651855469 9.091224670410156 17.64052581787109 9.092504501342773 L 9.077186584472656 9.092504501342773 C 9.054210662841797 9.091030120849609 9.031276702880859 9.090299606323242 9.008455276489258 9.090299606323242 M 17.66464233398438 13.36972427368164 C 17.65661239624023 13.36972427368164 17.64858055114746 13.36981391906738 17.64052581787109 13.3699951171875 L 9.077186584472656 13.3699951171875 C 8.495517730712891 13.38306427001953 8.030797958374023 13.85834503173828 8.030797958374023 14.44015502929688 C 8.030797958374023 15.02196502685547 8.495517730712891 15.49724388122559 9.077186584472656 15.51031494140625 L 17.64052581787109 15.51031494140625 C 18.02860069274902 15.51907730102539 18.39096832275391 15.31698417663574 18.58755683898926 14.9822940826416 C 18.78414726257324 14.64760398864746 18.78414726257324 14.23271369934082 18.58755683898926 13.89801406860352 C 18.39504623413086 13.57027053833008 18.04355621337891 13.36972427368164 17.66464233398438 13.36972427368164 M 17.64052581787109 17.65141296386719 L 9.077186584472656 17.65167427062988 C 9.077043533325195 17.65167427062988 9.076850891113281 17.65167427062988 9.076705932617188 17.65167427062988 C 8.485725402832031 17.65167427062988 8.006767272949219 18.13079833984375 8.006767272949219 18.72182464599609 C 8.006767272949219 19.31300354003906 8.486007690429688 19.79224395751953 9.077186584472656 19.79224395751953 L 17.64052581787109 19.79198455810547 C 18.23059272766113 19.79270362854004 18.71094703674316 19.3130054473877 18.71094703674316 18.72182464599609 C 18.71094703674316 18.13065338134766 18.23170852661133 17.65141296386719 17.64052581787109 17.65141296386719 M 9.077186584472656 0.2791557312011719 L 21.92220687866211 0.2791557312011719 C 23.82858657836914 0.2791557312011719 25.37953758239746 1.831514358520508 25.37953758239746 3.739633560180664 L 25.37953758239746 4.560834884643555 L 26.19969749450684 4.560834884643555 C 27.11777687072754 4.560834884643555 27.9852180480957 4.922504425048828 28.64222717285156 5.579214096069336 C 29.29933738708496 6.236024856567383 29.66121673583984 7.103313446044922 29.66121673583984 8.021305084228516 L 29.66121673583984 29.42235374450684 C 29.66121673583984 30.34039497375488 29.29934692382812 31.20784378051758 28.64226722717285 31.86492347717285 C 27.98518753051758 32.52199554443359 27.11772727966309 32.88386535644531 26.19969749450684 32.88386535644531 L 9.077186584472656 32.88386535644531 C 8.159267425537109 32.88386535644531 7.292457580566406 32.52197265625 6.636447906494141 31.8648738861084 C 5.980716705322266 31.20805358886719 5.61967658996582 30.34059524536133 5.619846343994141 29.42230415344238 L 5.619846343994141 28.60219383239746 L 4.799686431884766 28.60219383239746 C 3.881536483764648 28.60219383239746 3.014007568359375 28.24040412902832 2.356897354125977 27.58345413208008 C 1.699617385864258 26.92634391784668 1.337827682495117 26.05877494812012 1.338176727294922 25.14057540893555 L 1.338176727294922 16.58528900146484 C 1.330345153808594 16.2038402557373 1.452753067016602 15.87288475036621 1.692256927490234 15.62799453735352 C 1.934427261352539 15.38040351867676 2.28654670715332 15.23839378356934 2.658327102661133 15.23839378356934 C 3.030107498168945 15.23839378356934 3.382226943969727 15.38039398193359 3.624397277832031 15.62799453735352 C 3.863901138305664 15.87287521362305 3.986318588256836 16.20384407043457 3.978487014770508 16.58528327941895 L 3.978487014770508 25.14485549926758 C 3.978397369384766 25.37296485900879 4.060947418212891 25.58058547973633 4.210927963256836 25.72956466674805 C 4.361066818237305 25.87870407104492 4.570158004760742 25.96083450317383 4.799686431884766 25.96083450317383 L 21.92220687866211 25.96083450317383 C 22.39501762390137 25.96083450317383 22.73817825317383 25.6176643371582 22.73817825317383 25.14485549926758 L 22.73817825317383 3.739633560180664 C 22.73817825317383 3.264404296875 22.39501762390137 2.919473648071289 21.92220687866211 2.919473648071289 L 9.077186584472656 2.919473648071289 C 8.861577987670898 2.919473648071289 8.656387329101562 3.005924224853516 8.499416351318359 3.162904739379883 L 4.217657089233398 7.440485000610352 C 4.0634765625 7.594623565673828 3.978517532348633 7.799814224243164 3.978487014770508 8.018194198608398 L 3.978487014770508 10.15785598754883 C 3.986318588256836 10.5392951965332 3.863901138305664 10.87025451660156 3.624387741088867 11.11514472961426 C 3.382226943969727 11.36273384094238 3.030107498168945 11.5047435760498 2.658327102661133 11.5047435760498 C 2.28654670715332 11.5047435760498 1.934427261352539 11.36273384094238 1.692256927490234 11.11513519287109 C 1.452709197998047 10.87020874023438 1.330301284790039 10.53914833068848 1.33818244934082 10.15761184692383 L 1.342357635498047 8.017673492431641 C 1.342477798461914 7.102594375610352 1.710086822509766 6.210054397583008 2.350946426391602 5.569374084472656 L 6.629487991333008 1.29188346862793 C 7.273216247558594 0.648284912109375 8.165367126464844 0.2791557312011719 9.077186584472656 0.2791557312011719 Z M 26.19969749450684 30.24250411987305 C 26.6749267578125 30.24250411987305 27.01985740661621 29.89758491516113 27.01985740661621 29.42235374450684 L 27.01985740661621 8.021305084228516 C 27.01985740661621 7.546073913574219 26.6749267578125 7.201145172119141 26.19969749450684 7.201145172119141 L 25.37953758239746 7.201145172119141 L 25.37953758239746 25.14485549926758 C 25.37953758239746 27.05123519897461 23.82858657836914 28.60219383239746 21.92220687866211 28.60219383239746 L 8.255977630615234 28.60219383239746 L 8.255977630615234 29.42235374450684 C 8.255937576293945 29.65106391906738 8.338666915893555 29.85964393615723 8.488937377929688 30.00971412658691 C 8.639247894287109 30.15983390808105 8.84815788269043 30.24250411987305 9.077186584472656 30.24250411987305 L 26.19969749450684 30.24250411987305 Z M 9.008457183837891 8.840303421020508 C 9.033794403076172 8.840303421020508 9.059240341186523 8.841035842895508 9.084745407104492 8.842504501342773 L 17.63309860229492 8.842504501342773 C 17.65566253662109 8.841238021850586 17.67825126647949 8.840539932250977 17.70084762573242 8.840414047241211 L 17.71028709411621 8.840383529663086 C 18.18955612182617 8.840383529663086 18.63182830810547 9.100685119628906 18.86449813842773 9.519704818725586 C 19.09918594360352 9.942354202270508 19.08429718017578 10.4586238861084 18.82564735412598 10.86704444885254 C 18.56842041015625 11.27320289611816 18.11661529541016 11.50710487365723 17.63283157348633 11.4786434173584 L 9.084737777709961 11.4786434173584 C 8.597864151000977 11.50689697265625 8.130525588989258 11.25888252258301 7.879617691040039 10.84498405456543 C 7.623706817626953 10.42281341552734 7.623706817626953 9.898313522338867 7.879617691040039 9.476163864135742 C 8.117376327514648 9.083953857421875 8.5499267578125 8.840303421020508 9.008457183837891 8.840303421020508 Z M 17.66464614868164 13.11972427368164 C 18.13077735900879 13.11972427368164 18.56700706481934 13.36943435668945 18.80311584472656 13.77139472961426 C 19.04541778564453 14.18390464782715 19.04541778564453 14.69641494750977 18.80311584472656 15.10891342163086 C 18.56247711181641 15.51858329772949 18.11397552490234 15.76981544494629 17.63779067993164 15.76031494140625 L 9.071567535400391 15.76025390625 C 8.359836578369141 15.74425506591797 7.780797958374023 15.15206527709961 7.780797958374023 14.44015502929688 C 7.780797958374023 13.72824478149414 8.359836578369141 13.13605499267578 9.071567535400391 13.12005424499512 L 9.077186584472656 13.1199951171875 L 17.63779449462891 13.1199951171875 C 17.64675903320312 13.11981391906738 17.65570640563965 13.11972427368164 17.66464614868164 13.11972427368164 Z M 17.64051818847656 17.40141296386719 L 17.64052581787109 17.40141296386719 C 18.36860656738281 17.40141296386719 18.96094703674316 17.99374389648438 18.96094703674316 18.72182464599609 C 18.96094703674316 19.44976425170898 18.36882781982422 20.04198455810547 17.64100646972656 20.04198455810547 L 9.077198028564453 20.04224395751953 C 8.34910774230957 20.04224395751953 7.756767272949219 19.44990539550781 7.756767272949219 18.72182464599609 C 7.756767272949219 17.99389457702637 8.348886489868164 17.40167427062988 9.07670783996582 17.40167427062988 L 17.64051818847656 17.40141296386719 Z" stroke="none" fill="#ffffff"/>
      </g>
    </g>
  </g>
</svg>
